<svg xmlns="http://www.w3.org/2000/svg" viewBox="0 0 24 24"><defs><style>.cls-1,.cls-2{fill:none;stroke:#000;}.cls-1{stroke-miterlimit:10;}.cls-2{stroke-linecap:round;stroke-linejoin:round;fill-rule:evenodd;}</style></defs><title>icon_document_setting_1</title><g id="圖層_5" data-name="圖層 5"><path class="cls-1" d="M20.41,14.41h-.09a.9.9,0,0,1-.82-.54v0a.91.91,0,0,1,.17-1l0,0a1.09,1.09,0,0,0,0-1.55h0a1.08,1.08,0,0,0-1.54,0l0,0a.91.91,0,0,1-1,.19.92.92,0,0,1-.55-.83v-.05a1.09,1.09,0,0,0-2.18,0v.09a.9.9,0,0,1-.54.82h0a.87.87,0,0,1-1-.17l0,0a1.1,1.1,0,0,0-1.54,0,1.08,1.08,0,0,0,0,1.55l0,0a.94.94,0,0,1-.64,1.59h-.05a1.09,1.09,0,0,0,0,2.18h.09a.9.9,0,0,1,.83.54.89.89,0,0,1-.18,1l0,0a1.1,1.1,0,1,0,1.55,1.55l0,0a.94.94,0,0,1,1.59.64v.05a1.09,1.09,0,0,0,2.18,0v-.09a.91.91,0,0,1,1.54-.65l0,0a1.1,1.1,0,0,0,1.54,0h0a1.09,1.09,0,0,0,0-1.54l0,0a.9.9,0,0,1-.18-1,.91.91,0,0,1,.82-.54h.05a1.09,1.09,0,0,0,0-2.18ZM15.5,17.35a1.85,1.85,0,1,1,1.85-1.85A1.85,1.85,0,0,1,15.5,17.35Z"/><path class="cls-2" d="M9.5,21.49h-1a4,4,0,0,1-4-4v-11a4,4,0,0,1,4-4h5.17a2,2,0,0,1,1.41.59L19.5,7.5"/><path class="cls-2" d="M14.5,3V5.5a2,2,0,0,0,2,2h3"/></g></svg>