<svg xmlns="http://www.w3.org/2000/svg" viewBox="0 0 24 24"><defs><style>.cls-1,.cls-2{fill:none;stroke:#000;stroke-linecap:round;stroke-linejoin:round;}.cls-1{fill-rule:evenodd;}</style></defs><title>icon_copy_1</title><g id="圖層_5" data-name="圖層 5"><path class="cls-1" d="M12.3,20.5H6.7a3.18,3.18,0,0,1-3.2-3.16V8.66A3.18,3.18,0,0,1,6.7,5.5h3.67a1.62,1.62,0,0,1,1.21.55l3.53,4a1.55,1.55,0,0,1,.39,1v6.22A3.18,3.18,0,0,1,12.3,20.5Z"/><path class="cls-1" d="M18.41,18.3a3.15,3.15,0,0,0,2.09-3V9.12a1.55,1.55,0,0,0-.39-1l-3.53-4a1.62,1.62,0,0,0-1.21-.55H12.7"/><line class="cls-2" x1="10.5" y1="9.5" x2="6.5" y2="9.5"/><line class="cls-2" x1="12.5" y1="13.5" x2="6.5" y2="13.5"/><line class="cls-2" x1="8.5" y1="17.5" x2="6.5" y2="17.5"/></g></svg>