<?xml version="1.0" encoding="utf-8"?>
<!-- Generator: Adobe Illustrator 22.0.1, SVG Export Plug-In . SVG Version: 6.00 Build 0)  -->
<svg version="1.1" id="icon" xmlns="http://www.w3.org/2000/svg" xmlns:xlink="http://www.w3.org/1999/xlink" x="0px" y="0px"
	 viewBox="0 0 24 24" style="enable-background:new 0 0 24 24;" xml:space="preserve">
<style type="text/css">
	.st0{fill:#FFFFFF;}
</style>
<title>工作區域 223</title>
<g>
	<path class="st0" d="M21.5,7h-19C2.2,7,2,6.8,2,6.5S2.2,6,2.5,6h19C21.8,6,22,6.2,22,6.5S21.8,7,21.5,7z"/>
</g>
<g>
	<path class="st0" d="M9,22c-2.5-0.1-4.4-2-4.5-4.5L4,6.5C4,6.2,4.2,6,4.5,6C4.7,6,5,6.2,5,6.5l0.5,11C5.6,19.4,7.1,20.9,9,21l6,0
		c1.9-0.1,3.4-1.6,3.5-3.5l0.5-11C19,6.2,19.2,6,19.5,6C19.8,6,20,6.2,20,6.5l-0.5,11c-0.1,2.4-2,4.4-4.5,4.5L9,22z"/>
</g>
<g>
	<path class="st0" d="M15.5,6.9c-0.3,0-0.5-0.2-0.5-0.5V5.5C15,4.1,13.9,3,12.5,3h-1C10.1,3,9,4.1,9,5.5v0.9c0,0.3-0.2,0.5-0.5,0.5
		S8,6.7,8,6.4V5.5C8,3.6,9.6,2,11.5,2h1C14.4,2,16,3.6,16,5.5v0.9C16,6.7,15.8,6.9,15.5,6.9z"/>
</g>
<g>
	<path class="st0" d="M10,19c-0.3,0-0.5-0.2-0.5-0.5v-9C9.5,9.2,9.7,9,10,9s0.5,0.2,0.5,0.5v9C10.5,18.8,10.3,19,10,19z"/>
</g>
<g>
	<path class="st0" d="M14,17c-0.3,0-0.5-0.2-0.5-0.5v-5c0-0.3,0.2-0.5,0.5-0.5s0.5,0.2,0.5,0.5v5C14.5,16.8,14.3,17,14,17z"/>
</g>
</svg>
